<svg width="24" height="24" viewBox="0 0 24 24" fill="none" xmlns="http://www.w3.org/2000/svg">
<g clip-path="url(#clip0_43_122)">
<path d="M11.9999 17.9999C10.4086 17.9999 8.88252 17.3678 7.7573 16.2426C6.63208 15.1174 5.99994 13.5912 5.99994 11.9999C5.99994 10.4086 6.63208 8.88252 7.7573 7.7573C8.88252 6.63208 10.4086 5.99994 11.9999 5.99994C13.5912 5.99994 15.1174 6.63208 16.2426 7.7573C17.3678 8.88252 17.9999 10.4086 17.9999 11.9999C17.9999 13.5912 17.3678 15.1174 16.2426 16.2426C15.1174 17.3678 13.5912 17.9999 11.9999 17.9999ZM19.9999 15.3099L23.3099 11.9999L19.9999 8.68994V3.99994H15.3099L11.9999 0.689941L8.68994 3.99994H3.99994V8.68994L0.689941 11.9999L3.99994 15.3099V19.9999H8.68994L11.9999 23.3099L15.3099 19.9999H19.9999V15.3099Z" fill="white"/>
</g>
<defs>
<clipPath id="clip0_43_122">
<rect width="24" height="24" fill="white"/>
</clipPath>
</defs>
</svg>
