<svg width="24" height="25" viewBox="0 0 24 25" fill="none" xmlns="http://www.w3.org/2000/svg">
<path d="M12 24.4058C5.385 24.4058 0 19.0208 0 12.4058C0 5.79076 5.385 0.405762 12 0.405762C18.615 0.405762 24 5.79076 24 12.4058C24 19.0208 18.615 24.4058 12 24.4058ZM22.12 14.0478C21.77 13.9378 18.95 13.0948 15.736 13.6098C17.076 17.2938 17.623 20.2938 17.728 20.9178C18.8905 20.133 19.8801 19.1187 20.6359 17.9372C21.3918 16.7558 21.8978 15.4321 22.123 14.0478H22.12ZM16.005 21.8558C15.852 20.9558 15.255 17.8238 13.815 14.0858L13.749 14.1058C7.959 16.1208 5.889 20.1308 5.709 20.5058C7.50322 21.9131 9.71869 22.676 11.999 22.6718C13.419 22.6718 14.769 22.3818 15.999 21.8578L16.005 21.8558ZM4.385 19.2758C4.617 18.8758 7.43 14.2208 12.717 12.5108C12.852 12.4658 12.987 12.4268 13.122 12.3908C12.862 11.8058 12.582 11.2238 12.29 10.6508C7.17 12.1808 2.206 12.1158 1.756 12.1058L1.752 12.4178C1.752 15.0508 2.75 17.4548 4.386 19.2728L4.385 19.2758ZM1.965 10.3208C2.425 10.3288 6.648 10.3468 11.442 9.07276C10.2826 7.03003 9.01408 5.05117 7.642 3.14476C6.20657 3.82055 4.94713 4.81956 3.96238 6.06351C2.97763 7.30746 2.29432 8.76255 1.966 10.3148L1.965 10.3208ZM9.6 2.45776C9.882 2.83776 11.745 5.37176 13.422 8.45776C17.067 7.09276 18.612 5.01776 18.795 4.75576C16.925 3.08757 14.5059 2.16692 12 2.16976C11.175 2.16976 10.37 2.26976 9.6 2.45476V2.45776ZM19.935 5.94076C19.717 6.23076 18 8.43376 14.211 9.98076C14.451 10.4708 14.681 10.9658 14.891 11.4668C14.971 11.6468 15.041 11.8268 15.111 11.9968C18.521 11.5668 21.911 12.2568 22.251 12.3268C22.231 9.90676 21.371 7.68676 19.941 5.94676L19.935 5.94076Z" fill="#BBA6CB"/>
</svg>
