<svg width="24" height="16" viewBox="0 0 24 16" fill="none" xmlns="http://www.w3.org/2000/svg">
<path d="M6.94067 0.405762C7.64294 0.405762 8.28118 0.465785 8.86141 0.593834C9.43863 0.723884 9.93182 0.923961 10.347 1.20407C10.7571 1.48418 11.0803 1.85432 11.3073 2.3245C11.5324 2.79468 11.6475 3.3749 11.6475 4.05517C11.6475 4.79545 11.4774 5.41569 11.1403 5.91588C10.8022 6.41607 10.303 6.81623 9.63771 7.13635C10.5441 7.39645 11.2143 7.85663 11.6605 8.50688C12.1087 9.16713 12.3257 9.95743 12.3257 10.8678C12.3257 11.6181 12.1957 12.2583 11.9156 12.7985C11.6355 13.3487 11.2453 13.7989 10.7551 14.149C10.275 14.4972 9.70473 14.7493 9.08449 14.9163C8.46157 15.0849 7.81909 15.1703 7.17376 15.1704H0V0.412765H6.94067V0.405762ZM16.9465 12.5724C17.3867 13.0006 18.0199 13.2157 18.8412 13.2157C19.4315 13.2157 19.9417 13.0676 20.3718 12.7685C20.796 12.4784 21.0521 12.1583 21.1521 11.8282H23.7411C23.338 13.1086 22.6927 14.029 21.8404 14.5792C20.9901 15.1394 19.9557 15.4095 18.7592 15.4095C17.9219 15.4095 17.1746 15.2795 16.4863 15.0094C15.839 14.7544 15.2527 14.3658 14.7657 13.8689C14.2892 13.3586 13.9225 12.756 13.6883 12.0983C13.4352 11.408 13.3151 10.6477 13.3151 9.82738C13.3151 9.02408 13.4502 8.28679 13.7183 7.59653C13.9884 6.89626 14.3625 6.31603 14.8387 5.80584C15.3339 5.29564 15.9021 4.91049 16.5754 4.61138C17.2486 4.31226 17.9759 4.17821 18.7962 4.17821C19.7066 4.17821 20.4869 4.34228 21.1771 4.70141C21.8304 5.03527 22.3985 5.51438 22.8378 6.10195C23.278 6.68818 23.5881 7.36244 23.7781 8.12273C23.9682 8.87302 24.0282 9.66332 23.9882 10.5036H16.2953C16.2953 11.344 16.5754 12.1363 17.0055 12.5694L16.9255 12.5995L16.9465 12.5724ZM6.70258 12.6225C7.0197 12.6225 7.32282 12.5924 7.60893 12.5294C7.89904 12.4694 8.15714 12.3644 8.37222 12.2293C8.5823 12.0943 8.76237 11.9012 8.89242 11.6461C9.02247 11.406 9.08249 11.0759 9.08249 10.6857C9.08249 9.93543 8.86241 9.39522 8.44225 9.06509C8.01208 8.74497 7.45187 8.58491 6.7516 8.58491H3.24125V12.6365H6.70258V12.6065V12.6225ZM20.3148 6.97029C19.9627 6.58514 19.3745 6.37806 18.6572 6.37806C18.189 6.37806 17.8018 6.45209 17.4907 6.61615C17.1886 6.76621 16.9405 6.96628 16.7504 7.20638C16.5604 7.44647 16.4333 7.68656 16.3583 7.95667C16.2833 8.21677 16.2382 8.45686 16.2232 8.66694H20.9871C20.917 7.91665 20.6569 7.36644 20.3068 6.97629V6.98629L20.3148 6.97029ZM6.52251 6.35505C7.09673 6.35505 7.57291 6.221 7.94806 5.94289C8.3222 5.67279 8.50227 5.22261 8.50227 4.60438C8.50227 4.26024 8.43224 3.97914 8.3222 3.75805C8.19215 3.53797 8.02208 3.3679 7.82201 3.24585C7.61193 3.12181 7.37183 3.03577 7.10173 2.98876C6.82462 2.93739 6.54323 2.9126 6.26141 2.91473H3.23124V6.35605H6.52251V6.35505ZM15.624 1.39514H21.5943V2.8497H15.624V1.38314V1.39314V1.39514Z" fill="#BBA6CB"/>
</svg>
