<svg width="250" height="32" viewBox="0 0 250 32" fill="none" xmlns="http://www.w3.org/2000/svg">
<path d="M11.3202 10.168C9.86424 10.784 8.33357 11.428 6.72824 12.1C5.12291 12.772 3.60157 13.4533 2.16424 14.144C2.83624 14.6107 3.56424 15.096 4.34824 15.6C5.15091 16.0853 5.97224 16.5707 6.81224 17.056C7.65224 17.5413 8.50157 18.008 9.36024 18.456C10.2189 18.904 11.0496 19.3147 11.8522 19.688C11.7962 20.0427 11.6469 20.3787 11.4042 20.696C11.1616 21.0133 10.9189 21.2467 10.6762 21.396C9.87357 21.004 9.00557 20.5653 8.07224 20.08C7.15757 19.576 6.24291 19.0533 5.32824 18.512C4.41357 17.9707 3.52691 17.42 2.66824 16.86C1.80957 16.3 1.0349 15.7587 0.344238 15.236C0.381572 14.9747 0.428238 14.7227 0.484238 14.48C0.558905 14.2373 0.661572 14.0133 0.792238 13.808C1.16557 13.5653 1.63224 13.2853 2.19224 12.968C2.75224 12.632 3.36824 12.2773 4.04024 11.904C4.71224 11.5307 5.40291 11.148 6.11224 10.756C6.84024 10.364 7.54024 9.99999 8.21224 9.66399C8.90291 9.30933 9.54691 8.99199 10.1442 8.71199C10.7602 8.41333 11.2922 8.17066 11.7402 7.98399C11.7776 8.13333 11.7962 8.27333 11.7962 8.40399C11.7962 8.72133 11.7496 9.05733 11.6562 9.41199C11.5816 9.76666 11.4696 10.0187 11.3202 10.168Z" fill="url(#paint0_linear_41_117)"/>
<path d="M24.0296 4.62399C24.8509 4.32533 25.8123 4.07333 26.9136 3.86799C28.0336 3.64399 29.1629 3.53199 30.3016 3.53199C31.5709 3.53199 32.6443 3.68133 33.5216 3.97999C34.4176 4.25999 35.1456 4.65199 35.7056 5.15599C36.2656 5.64133 36.6669 6.21066 36.9096 6.86399C37.1709 7.51733 37.3016 8.20799 37.3016 8.93599C37.3016 9.83199 37.1336 10.6253 36.7976 11.316C36.4616 11.988 36.0229 12.576 35.4816 13.08C34.9589 13.5653 34.3523 13.976 33.6616 14.312C32.9709 14.6293 32.2803 14.872 31.5896 15.04C31.9069 15.2453 32.2056 15.5067 32.4856 15.824C32.7656 16.1227 33.0643 16.4773 33.3816 16.888L36.1536 20.472C36.7323 21.2187 37.2643 21.8627 37.7496 22.404C38.2349 22.9453 38.6456 23.356 38.9816 23.636V23.804C38.7203 23.9347 38.3376 24.028 37.8336 24.084C37.3296 24.1587 36.8536 24.196 36.4056 24.196C36.2189 24.1213 35.9669 23.9253 35.6496 23.608C35.3509 23.272 34.9309 22.712 34.3896 21.928L31.0856 17.252C30.8429 16.916 30.6096 16.6267 30.3856 16.384C30.1803 16.1413 29.9469 15.9453 29.6856 15.796C29.4429 15.628 29.1536 15.516 28.8176 15.46C28.5003 15.3853 28.1083 15.348 27.6416 15.348H26.3256V23.748C26.0269 23.916 25.6723 24.028 25.2616 24.084C24.8696 24.1587 24.4589 24.196 24.0296 24.196V4.62399ZM29.2936 4.81999C28.8456 4.81999 28.3603 4.84799 27.8376 4.90399C27.3149 4.95999 26.8109 5.04399 26.3256 5.15599V13.836C26.6429 13.9293 27.0069 14.004 27.4176 14.06C27.8469 14.116 28.3323 14.144 28.8736 14.144C30.7029 14.144 32.1496 13.7707 33.2136 13.024C34.2776 12.2773 34.8096 11.1293 34.8096 9.57999C34.8096 8.90799 34.6976 8.28266 34.4736 7.70399C34.2496 7.10666 33.9043 6.60266 33.4376 6.19199C32.9896 5.76266 32.4203 5.42666 31.7296 5.18399C31.0389 4.94133 30.2269 4.81999 29.2936 4.81999Z" fill="url(#paint1_linear_41_117)"/>
<path d="M56.0347 22.88C56.9307 22.88 57.7427 22.628 58.4707 22.124C59.1987 21.6013 59.7494 20.9013 60.1227 20.024V9.85999C60.44 9.69199 60.7854 9.57066 61.1587 9.49599C61.5507 9.42133 61.9427 9.38399 62.3347 9.38399V23.776C62.0734 23.9253 61.7467 24.028 61.3547 24.084C60.9814 24.1587 60.608 24.196 60.2347 24.196V21.536C60.048 21.8533 59.7867 22.1893 59.4507 22.544C59.1334 22.88 58.7507 23.1973 58.3027 23.496C57.8547 23.776 57.3414 24.0093 56.7627 24.196C56.2027 24.3827 55.5774 24.476 54.8867 24.476C54.196 24.476 53.5427 24.3733 52.9267 24.168C52.3294 23.9627 51.8067 23.6453 51.3587 23.216C50.9107 22.768 50.556 22.2173 50.2947 21.564C50.0334 20.892 49.9027 20.0987 49.9027 19.184V9.85999C50.22 9.69199 50.5654 9.57066 50.9387 9.49599C51.3307 9.42133 51.7227 9.38399 52.1147 9.38399V18.344C52.1147 19.184 52.2174 19.8933 52.4227 20.472C52.628 21.0507 52.908 21.5173 53.2627 21.872C53.6174 22.2267 54.028 22.488 54.4947 22.656C54.98 22.8053 55.4934 22.88 56.0347 22.88Z" fill="url(#paint2_linear_41_117)"/>
<path d="M75.2994 9.85999C75.6167 9.69199 75.962 9.57066 76.3354 9.49599C76.7274 9.42133 77.1194 9.38399 77.5114 9.38399V11.876C77.7727 11.5587 78.09 11.2413 78.4634 10.924C78.8367 10.588 79.2567 10.2893 79.7234 10.028C80.19 9.74799 80.7034 9.524 81.2634 9.356C81.8234 9.188 82.4207 9.10399 83.0554 9.10399C84.026 9.10399 84.8847 9.27199 85.6314 9.608C86.378 9.92533 87.0034 10.3827 87.5074 10.98C88.0114 11.5587 88.394 12.2493 88.6554 13.052C88.9167 13.8547 89.0474 14.732 89.0474 15.684C89.0474 16.916 88.8327 18.0733 88.4034 19.156C87.974 20.22 87.3767 21.1533 86.6114 21.956C85.8647 22.74 84.9687 23.3653 83.9234 23.832C82.8967 24.28 81.7767 24.504 80.5634 24.504C79.91 24.504 79.3314 24.4293 78.8274 24.28C78.3234 24.1493 77.8847 23.9813 77.5114 23.776V30.804C77.25 30.9533 76.9047 31.056 76.4754 31.112C76.0647 31.1867 75.6727 31.224 75.2994 31.224V9.85999ZM81.9914 10.7C81.114 10.7 80.2647 10.9613 79.4434 11.484C78.6407 12.0067 77.9967 12.6693 77.5114 13.472V21.116C77.9967 21.8067 78.6034 22.32 79.3314 22.656C80.0594 22.9733 80.8527 23.132 81.7114 23.132C82.4207 23.132 83.074 23.0013 83.6714 22.74C84.2874 22.4787 84.8194 22.0867 85.2674 21.564C85.7154 21.0227 86.07 20.3507 86.3314 19.548C86.5927 18.7453 86.7234 17.8027 86.7234 16.72C86.7234 14.7227 86.3127 13.22 85.4914 12.212C84.67 11.204 83.5034 10.7 81.9914 10.7Z" fill="url(#paint3_linear_41_117)"/>
<path d="M113.261 22.964C113.205 23.0573 113.111 23.1693 112.981 23.3C112.869 23.4307 112.738 23.5613 112.589 23.692C112.439 23.804 112.271 23.9067 112.085 24C111.917 24.0933 111.758 24.1587 111.609 24.196C111.011 24.1587 110.507 23.9347 110.097 23.524C109.686 23.0947 109.462 22.5347 109.425 21.844C109.275 22.124 109.051 22.4227 108.753 22.74C108.454 23.0387 108.09 23.3187 107.661 23.58C107.25 23.8227 106.774 24.0187 106.233 24.168C105.691 24.336 105.103 24.42 104.469 24.42C103.143 24.42 102.089 24.084 101.305 23.412C100.539 22.74 100.157 21.844 100.157 20.724C100.157 19.5667 100.595 18.596 101.473 17.812C102.35 17.028 103.853 16.4493 105.981 16.076L109.313 15.488V14.396C109.313 13.052 108.995 12.0253 108.361 11.316C107.745 10.6067 106.821 10.252 105.589 10.252C104.823 10.252 104.17 10.448 103.629 10.84C103.106 11.2133 102.845 11.7733 102.845 12.52C102.845 12.856 102.957 13.1547 103.181 13.416C103.013 13.64 102.742 13.8453 102.369 14.032C101.995 14.2187 101.613 14.3307 101.221 14.368C101.127 14.2747 101.015 14.1347 100.885 13.948C100.754 13.7613 100.689 13.5093 100.689 13.192C100.689 12.6133 100.857 12.072 101.193 11.568C101.529 11.064 101.967 10.6347 102.509 10.28C103.05 9.90666 103.675 9.61733 104.385 9.41199C105.094 9.20666 105.831 9.10399 106.597 9.10399C108.389 9.10399 109.658 9.51466 110.405 10.336C111.151 11.1387 111.525 12.268 111.525 13.724V20.752C111.525 21.5173 111.693 22.0493 112.029 22.348C112.365 22.628 112.757 22.796 113.205 22.852L113.261 22.964ZM105.365 22.936C106.335 22.936 107.157 22.712 107.829 22.264C108.519 21.816 109.014 21.2373 109.313 20.528V16.496L105.561 17.168C104.553 17.3547 103.778 17.672 103.237 18.12C102.714 18.568 102.453 19.212 102.453 20.052C102.453 20.9853 102.733 21.704 103.293 22.208C103.871 22.6933 104.562 22.936 105.365 22.936Z" fill="url(#paint4_linear_41_117)"/>
<path d="M134.467 15.208C134.467 13.6773 134.159 12.548 133.543 11.82C132.946 11.0733 132.078 10.7 130.939 10.7C130.043 10.7 129.24 10.9707 128.531 11.512C127.822 12.0533 127.271 12.6973 126.879 13.444V23.776C126.618 23.9253 126.272 24.028 125.843 24.084C125.432 24.1587 125.04 24.196 124.667 24.196V9.85999C125.283 9.54266 125.974 9.38399 126.739 9.38399V11.988C126.944 11.6707 127.206 11.344 127.523 11.008C127.859 10.6533 128.242 10.336 128.671 10.056C129.119 9.77599 129.614 9.55199 130.155 9.38399C130.696 9.19733 131.284 9.10399 131.919 9.10399C133.076 9.10399 134.019 9.41199 134.747 10.028C135.494 10.6253 135.998 11.3533 136.259 12.212C136.483 11.9133 136.763 11.5867 137.099 11.232C137.454 10.8587 137.855 10.5133 138.303 10.196C138.751 9.87866 139.246 9.61733 139.787 9.41199C140.347 9.20666 140.944 9.10399 141.579 9.10399C142.998 9.10399 144.146 9.55199 145.023 10.448C145.919 11.3253 146.367 12.6227 146.367 14.34V23.776C146.106 23.9253 145.76 24.028 145.331 24.084C144.92 24.1587 144.528 24.196 144.155 24.196V15.208C144.155 12.2027 142.988 10.7 140.655 10.7C139.89 10.7 139.143 10.9613 138.415 11.484C137.706 11.988 137.127 12.6227 136.679 13.388V23.776C136.418 23.9253 136.072 24.028 135.643 24.084C135.232 24.1587 134.84 24.196 134.467 24.196V15.208Z" fill="url(#paint5_linear_41_117)"/>
<path d="M162.3 4.98799C162.132 5.28666 161.87 5.60399 161.516 5.93999C161.161 6.25733 160.844 6.48133 160.564 6.61199C160.284 6.48133 159.966 6.25733 159.612 5.93999C159.257 5.60399 158.986 5.28666 158.8 4.98799C158.986 4.67066 159.257 4.34399 159.612 4.00799C159.966 3.67199 160.284 3.42933 160.564 3.27999C160.844 3.42933 161.161 3.67199 161.516 4.00799C161.889 4.34399 162.15 4.67066 162.3 4.98799ZM159.388 9.85999C159.705 9.69199 160.05 9.57066 160.424 9.49599C160.816 9.42133 161.208 9.38399 161.6 9.38399V23.776C161.338 23.9253 160.993 24.028 160.564 24.084C160.153 24.1587 159.761 24.196 159.388 24.196V9.85999Z" fill="url(#paint6_linear_41_117)"/>
<path d="M172.676 10.532C172.825 10.3267 173.059 10.14 173.376 9.97199C173.712 9.78533 174.076 9.69199 174.468 9.69199H175.364V5.65999C175.663 5.41733 176.008 5.23999 176.4 5.12799C176.811 4.99733 177.203 4.93199 177.576 4.93199V9.69199H183.064C183.045 10.0093 182.952 10.28 182.784 10.504C182.635 10.7093 182.439 10.812 182.196 10.812H177.576V19.996C177.576 20.5933 177.641 21.0787 177.772 21.452C177.921 21.8067 178.117 22.0867 178.36 22.292C178.603 22.4973 178.883 22.6373 179.2 22.712C179.517 22.7867 179.844 22.824 180.18 22.824C180.796 22.824 181.309 22.7027 181.72 22.46C182.131 22.2173 182.467 21.9653 182.728 21.704C182.989 21.7787 183.157 21.9373 183.232 22.18C183.139 22.3293 182.989 22.5253 182.784 22.768C182.579 23.0107 182.308 23.2533 181.972 23.496C181.636 23.72 181.235 23.916 180.768 24.084C180.301 24.252 179.779 24.336 179.2 24.336C178.677 24.336 178.183 24.2707 177.716 24.14C177.249 24.0093 176.839 23.7947 176.484 23.496C176.148 23.1973 175.877 22.796 175.672 22.292C175.467 21.788 175.364 21.1627 175.364 20.416V10.812H172.676V10.532Z" fill="url(#paint7_linear_41_117)"/>
<path d="M206.773 22.964C206.717 23.0573 206.624 23.1693 206.493 23.3C206.381 23.4307 206.25 23.5613 206.101 23.692C205.952 23.804 205.784 23.9067 205.597 24C205.429 24.0933 205.27 24.1587 205.121 24.196C204.524 24.1587 204.02 23.9347 203.609 23.524C203.198 23.0947 202.974 22.5347 202.937 21.844C202.788 22.124 202.564 22.4227 202.265 22.74C201.966 23.0387 201.602 23.3187 201.173 23.58C200.762 23.8227 200.286 24.0187 199.745 24.168C199.204 24.336 198.616 24.42 197.981 24.42C196.656 24.42 195.601 24.084 194.817 23.412C194.052 22.74 193.669 21.844 193.669 20.724C193.669 19.5667 194.108 18.596 194.985 17.812C195.862 17.028 197.365 16.4493 199.493 16.076L202.825 15.488V14.396C202.825 13.052 202.508 12.0253 201.873 11.316C201.257 10.6067 200.333 10.252 199.101 10.252C198.336 10.252 197.682 10.448 197.141 10.84C196.618 11.2133 196.357 11.7733 196.357 12.52C196.357 12.856 196.469 13.1547 196.693 13.416C196.525 13.64 196.254 13.8453 195.881 14.032C195.508 14.2187 195.125 14.3307 194.733 14.368C194.64 14.2747 194.528 14.1347 194.397 13.948C194.266 13.7613 194.201 13.5093 194.201 13.192C194.201 12.6133 194.369 12.072 194.705 11.568C195.041 11.064 195.48 10.6347 196.021 10.28C196.562 9.90666 197.188 9.61733 197.897 9.41199C198.606 9.20666 199.344 9.10399 200.109 9.10399C201.901 9.10399 203.17 9.51466 203.917 10.336C204.664 11.1387 205.037 12.268 205.037 13.724V20.752C205.037 21.5173 205.205 22.0493 205.541 22.348C205.877 22.628 206.269 22.796 206.717 22.852L206.773 22.964ZM198.877 22.936C199.848 22.936 200.669 22.712 201.341 22.264C202.032 21.816 202.526 21.2373 202.825 20.528V16.496L199.073 17.168C198.065 17.3547 197.29 17.672 196.749 18.12C196.226 18.568 195.965 19.212 195.965 20.052C195.965 20.9853 196.245 21.704 196.805 22.208C197.384 22.6933 198.074 22.936 198.877 22.936Z" fill="url(#paint8_linear_41_117)"/>
<path d="M219.098 26.1C218.967 26.1747 218.799 26.2213 218.594 26.24C218.407 26.2773 218.211 26.296 218.006 26.296C217.688 26.296 217.446 26.268 217.278 26.212L226.546 1.06799C226.882 0.91866 227.246 0.843994 227.638 0.843994C227.918 0.843994 228.16 0.871994 228.366 0.927993L219.098 26.1Z" fill="url(#paint9_linear_41_117)"/>
<path d="M238.087 19.184C239.543 18.568 241.065 17.9333 242.651 17.28C244.238 16.608 245.759 15.9173 247.215 15.208C246.525 14.7413 245.787 14.2747 245.003 13.808C244.219 13.3227 243.407 12.8467 242.567 12.38C241.727 11.8947 240.878 11.4373 240.019 11.008C239.161 10.56 238.33 10.1493 237.527 9.77599C237.602 9.42133 237.751 9.07599 237.975 8.73999C238.199 8.38533 238.451 8.13333 238.731 7.98399C239.534 8.35733 240.393 8.79599 241.307 9.29999C242.241 9.78533 243.165 10.308 244.079 10.868C244.994 11.4093 245.881 11.96 246.739 12.52C247.598 13.08 248.363 13.6213 249.035 14.144C248.998 14.3867 248.942 14.6293 248.867 14.872C248.811 15.1147 248.727 15.3387 248.615 15.544C248.242 15.7867 247.766 16.076 247.187 16.412C246.627 16.7293 246.011 17.0747 245.339 17.448C244.686 17.8213 243.995 18.204 243.267 18.596C242.558 18.988 241.858 19.3613 241.167 19.716C240.477 20.0707 239.823 20.3973 239.207 20.696C238.61 20.9947 238.097 21.228 237.667 21.396C237.63 21.2467 237.611 21.0973 237.611 20.948C237.611 20.6307 237.658 20.304 237.751 19.968C237.845 19.6133 237.957 19.352 238.087 19.184Z" fill="url(#paint10_linear_41_117)"/>
<defs>
<linearGradient id="paint0_linear_41_117" x1="-0.999998" y1="16" x2="334.361" y2="16" gradientUnits="userSpaceOnUse">
<stop stop-color="#DF8B5C"/>
<stop offset="1" stop-color="white"/>
</linearGradient>
<linearGradient id="paint1_linear_41_117" x1="-0.999998" y1="16" x2="334.361" y2="16" gradientUnits="userSpaceOnUse">
<stop stop-color="#DF8B5C"/>
<stop offset="1" stop-color="white"/>
</linearGradient>
<linearGradient id="paint2_linear_41_117" x1="-0.999998" y1="16" x2="334.361" y2="16" gradientUnits="userSpaceOnUse">
<stop stop-color="#DF8B5C"/>
<stop offset="1" stop-color="white"/>
</linearGradient>
<linearGradient id="paint3_linear_41_117" x1="-0.999998" y1="16" x2="334.361" y2="16" gradientUnits="userSpaceOnUse">
<stop stop-color="#DF8B5C"/>
<stop offset="1" stop-color="white"/>
</linearGradient>
<linearGradient id="paint4_linear_41_117" x1="-0.999998" y1="16" x2="334.361" y2="16" gradientUnits="userSpaceOnUse">
<stop stop-color="#DF8B5C"/>
<stop offset="1" stop-color="white"/>
</linearGradient>
<linearGradient id="paint5_linear_41_117" x1="-0.999998" y1="16" x2="334.361" y2="16" gradientUnits="userSpaceOnUse">
<stop stop-color="#DF8B5C"/>
<stop offset="1" stop-color="white"/>
</linearGradient>
<linearGradient id="paint6_linear_41_117" x1="-0.999998" y1="16" x2="334.361" y2="16" gradientUnits="userSpaceOnUse">
<stop stop-color="#DF8B5C"/>
<stop offset="1" stop-color="white"/>
</linearGradient>
<linearGradient id="paint7_linear_41_117" x1="-0.999998" y1="16" x2="334.361" y2="16" gradientUnits="userSpaceOnUse">
<stop stop-color="#DF8B5C"/>
<stop offset="1" stop-color="white"/>
</linearGradient>
<linearGradient id="paint8_linear_41_117" x1="-0.999998" y1="16" x2="334.361" y2="16" gradientUnits="userSpaceOnUse">
<stop stop-color="#DF8B5C"/>
<stop offset="1" stop-color="white"/>
</linearGradient>
<linearGradient id="paint9_linear_41_117" x1="-0.999998" y1="16" x2="334.361" y2="16" gradientUnits="userSpaceOnUse">
<stop stop-color="#DF8B5C"/>
<stop offset="1" stop-color="white"/>
</linearGradient>
<linearGradient id="paint10_linear_41_117" x1="-0.999998" y1="16" x2="334.361" y2="16" gradientUnits="userSpaceOnUse">
<stop stop-color="#DF8B5C"/>
<stop offset="1" stop-color="white"/>
</linearGradient>
</defs>
</svg>
